<svg xmlns="http://www.w3.org/2000/svg" viewBox="0 0 120 120" role="img" aria-labelledby="title desc">
  <title id="title">けやき坂46 ロケ地マップ</title>
  <desc id="desc">けやき坂46を表す紫色のマップピンアイコン</desc>
  <defs>
    <linearGradient id="bg" x1="12" y1="8" x2="108" y2="112" gradientUnits="userSpaceOnUse">
      <stop stop-color="#A78BFA"/>
      <stop offset="1" stop-color="#6D28D9"/>
    </linearGradient>
    <filter id="shadow" x="-30%" y="-20%" width="160%" height="170%">
      <feDropShadow dx="0" dy="4" stdDeviation="4" flood-color="#3B1675" flood-opacity=".28"/>
    </filter>
  </defs>
  <rect width="120" height="120" rx="26" fill="url(#bg)"/>
  <path d="M14 31c20-14 38-14 56-2s31 12 38 4M9 91c17-12 33-13 49-4 19 10 36 9 53-4" fill="none" stroke="#fff" stroke-opacity=".16" stroke-width="4" stroke-linecap="round"/>
  <g filter="url(#shadow)">
    <path d="M60 17c-21.5 0-39 17.2-39 38.4C21 82.8 60 107 60 107s39-24.2 39-51.6C99 34.2 81.5 17 60 17Z" fill="#fff"/>
    <circle cx="60" cy="55" r="25" fill="#F3EEFF"/>
    <text x="60" y="66" text-anchor="middle" font-family="'Noto Sans JP','Hiragino Sans','Yu Gothic',sans-serif" font-size="34" font-weight="800" fill="#7C3AED">け</text>
  </g>
  <text x="60" y="103" text-anchor="middle" font-family="Arial,sans-serif" font-size="8" font-weight="700" letter-spacing="1.8" fill="#6D28D9">KEYAKI 46</text>
</svg>
